<svg
        xmlns="http://www.w3.org/2000/svg"
        xmlns:xlink="http://www.w3.org/1999/xlink"
        width="478px" height="478px">
    <path fill-rule="evenodd"  fill="rgb(232, 232, 232)"
          d="M477.946,238.523 C478.000,295.021 432.207,340.865 375.665,340.918 L324.476,340.918 C315.052,340.918 307.413,333.285 307.413,323.868 C307.413,314.452 315.052,306.818 324.476,306.818 L375.665,306.818 C398.480,306.764 419.759,295.323 432.373,276.326 C453.214,244.942 444.647,202.617 413.238,181.792 C407.073,177.724 404.229,170.155 406.191,163.038 C407.067,159.789 407.784,156.498 408.336,153.179 C417.598,97.501 379.936,44.863 324.215,35.609 C268.494,26.354 215.815,63.986 206.553,119.664 C205.986,123.155 204.348,126.381 201.864,128.900 C195.250,135.606 184.446,135.685 177.734,129.076 C171.370,122.842 162.815,119.343 153.902,119.328 C135.055,119.297 119.752,134.539 119.721,153.372 C119.721,162.788 112.081,170.422 102.657,170.422 C64.962,170.422 34.405,200.955 34.405,238.621 C34.405,276.286 64.962,306.820 102.657,306.820 L187.972,306.820 C197.396,306.820 205.035,314.454 205.035,323.870 C205.035,333.287 197.396,340.920 187.972,340.920 L102.657,340.920 C51.948,340.941 8.863,303.866 1.363,253.753 C-7.000,197.876 31.552,145.805 87.472,137.448 C88.232,134.279 89.220,131.168 90.427,128.139 C104.369,93.144 144.061,76.069 179.083,90.000 C198.643,36.088 249.860,0.159 307.250,0.090 C382.639,-0.001 443.826,60.992 443.917,136.323 C443.907,144.433 443.154,152.526 441.665,160.500 C464.649,179.915 477.918,208.452 477.946,238.523 ZM182.971,362.964 L239.160,419.109 L239.160,170.423 C239.160,161.006 246.800,153.373 256.224,153.373 C265.648,153.373 273.287,161.006 273.287,170.423 L273.287,419.110 L329.510,362.965 C336.121,356.585 346.604,356.585 353.217,362.965 C359.995,369.507 360.183,380.300 353.636,387.072 L268.321,472.321 C268.310,472.331 268.300,472.341 268.290,472.351 C261.618,479.001 250.814,478.987 244.159,472.321 L158.844,387.072 C152.458,380.465 152.458,369.990 158.844,363.383 C165.391,356.611 176.193,356.423 182.971,362.964 Z"/>
</svg>