<svg
        xmlns="http://www.w3.org/2000/svg"
        xmlns:xlink="http://www.w3.org/1999/xlink"
        width="512px" height="512px">
    <path fill-rule="evenodd"  fill="rgb(232, 232, 232)"
          d="M256.000,512.000 C114.497,512.000 0.000,397.484 0.000,256.000 C0.000,114.497 114.516,0.000 256.000,0.000 C397.503,0.000 512.000,114.516 512.000,256.000 C512.000,397.503 397.484,512.000 256.000,512.000 ZM256.000,40.000 C136.607,40.000 40.000,136.623 40.000,256.000 C40.000,375.393 136.623,472.000 256.000,472.000 C375.393,472.000 472.000,375.377 472.000,256.000 C472.000,136.607 375.377,40.000 256.000,40.000 ZM276.000,285.969 L276.000,318.500 C276.000,329.546 267.046,338.500 256.000,338.500 C244.954,338.500 236.000,329.546 236.000,318.500 L236.000,268.500 C236.000,257.454 244.954,248.500 256.000,248.500 C278.056,248.500 296.000,230.556 296.000,208.500 C296.000,186.444 278.056,168.500 256.000,168.500 C233.944,168.500 216.000,186.444 216.000,208.500 C216.000,219.546 207.046,228.500 196.000,228.500 C184.954,228.500 176.000,219.546 176.000,208.500 C176.000,164.388 211.888,128.500 256.000,128.500 C300.112,128.500 336.000,164.388 336.000,208.500 C336.000,245.709 310.466,277.066 276.000,285.969 ZM256.000,353.500 C269.807,353.500 281.000,364.693 281.000,378.500 C281.000,392.307 269.807,403.500 256.000,403.500 C242.193,403.500 231.000,392.307 231.000,378.500 C231.000,364.693 242.193,353.500 256.000,353.500 Z"/>
</svg>