<svg
        xmlns="http://www.w3.org/2000/svg"
        xmlns:xlink="http://www.w3.org/1999/xlink"
        width="512px" height="512px">
    <path fill-rule="evenodd"  fill="rgb(0, 0, 0)"
          d="M256.000,512.000 C114.833,512.000 0.000,397.167 0.000,256.000 C0.000,114.833 114.833,0.000 256.000,0.000 C397.167,0.000 512.000,114.853 512.000,256.000 C512.000,397.147 397.167,512.000 256.000,512.000 ZM256.000,39.659 C136.725,39.659 39.659,136.705 39.659,256.000 C39.659,375.295 136.725,472.341 256.000,472.341 C375.295,472.341 472.341,375.295 472.341,256.000 C472.341,136.705 375.275,39.659 256.000,39.659 ZM355.148,274.046 L275.830,274.046 L275.830,353.364 C275.830,364.310 266.966,373.194 256.000,373.194 C245.034,373.194 236.170,364.310 236.170,353.364 L236.170,274.046 L156.852,274.046 C145.886,274.046 137.022,265.162 137.022,254.216 C137.022,243.270 145.886,234.386 156.852,234.386 L236.170,234.386 L236.170,155.068 C236.170,144.122 245.034,135.238 256.000,135.238 C266.966,135.238 275.830,144.122 275.830,155.068 L275.830,234.386 L355.148,234.386 C366.114,234.386 374.978,243.270 374.978,254.216 C374.978,265.162 366.114,274.046 355.148,274.046 Z"/>
</svg>