<svg
        xmlns="http://www.w3.org/2000/svg"
        xmlns:xlink="http://www.w3.org/1999/xlink"
        width="513px" height="513px">
    <path fill-rule="evenodd"  fill="rgb(0, 0, 0)"
          d="M437.165,438.100 C387.238,488.040 321.659,513.000 256.082,513.000 C190.505,513.000 124.927,488.040 75.000,438.100 C26.639,389.727 0.000,325.402 0.000,256.990 C0.000,188.578 26.639,124.253 75.000,75.861 C174.835,-24.000 337.331,-24.000 437.166,75.861 C537.000,175.741 537.000,338.239 437.165,438.100 ZM409.117,103.916 C324.735,19.531 187.430,19.511 103.047,103.916 C62.186,144.808 39.672,199.173 39.672,256.990 C39.672,314.807 62.186,369.172 103.047,410.044 C187.430,494.448 324.735,494.448 409.117,410.044 C493.480,325.660 493.480,188.320 409.117,103.916 ZM341.578,339.887 C337.710,343.755 332.612,345.700 327.534,345.700 C322.455,345.700 317.378,343.775 313.510,339.906 L257.314,283.775 L201.119,339.906 C197.251,343.755 192.174,345.700 187.095,345.700 C182.017,345.700 176.919,343.775 173.051,339.887 C165.315,332.128 165.315,319.568 173.071,311.831 L229.227,255.740 L173.071,199.650 C165.315,191.911 165.315,179.352 173.051,171.594 C180.807,163.816 193.363,163.836 201.118,171.574 L257.313,227.705 L313.509,171.574 C321.264,163.836 333.820,163.816 341.576,171.594 C349.292,179.353 349.292,191.912 341.556,199.650 L285.400,255.740 L341.556,311.831 C349.312,319.568 349.312,332.128 341.578,339.887 Z"/>
</svg>